<?xml version="1.0" standalone="no"?>
<!DOCTYPE svg PUBLIC "-//W3C//DTD SVG 20010904//EN"
 "http://www.w3.org/TR/2001/REC-SVG-20010904/DTD/svg10.dtd">
<svg version="1.0" xmlns="http://www.w3.org/2000/svg"
 width="600.000000pt" height="318.000000pt" viewBox="0 0 600.000000 318.000000"
 preserveAspectRatio="xMidYMid meet">
<metadata>
Created by potrace 1.15, written by Peter Selinger 2001-2017
</metadata>
<g transform="translate(0.000000,318.000000) scale(0.100000,-0.100000)"
fill="#000000" stroke="none">
<path d="M1316 2913 c-49 -14 -130 -74 -154 -114 -50 -84 -38 -247 23 -313
l24 -26 -79 0 -80 0 -2 223 -3 222 -50 0 -50 0 -3 -107 -3 -108 -109 0 -110 0
0 111 0 110 -47 -3 -48 -3 -3 -222 -2 -223 -105 0 -105 0 0 180 0 180 70 0 70
0 0 45 0 45 -192 -2 -193 -3 -3 -42 -3 -43 75 0 76 0 0 -180 0 -180 -80 0
c-79 0 -80 0 -80 -25 l0 -25 285 0 285 0 0 95 0 95 110 0 110 0 0 -95 0 -95
445 0 445 0 1 163 c0 89 3 155 6 147 3 -8 11 -22 18 -30 8 -8 30 -53 51 -100
20 -47 40 -87 44 -90 4 -3 12 -15 19 -28 10 -18 19 -22 44 -20 34 3 38 9 96
133 13 28 34 70 47 95 l24 44 0 -157 0 -157 130 0 129 0 22 50 22 51 116 -3
115 -3 17 -45 17 -45 1171 -3 1171 -2 0 80 0 80 40 0 c48 0 60 -11 115 -97
l40 -62 288 -1 287 0 0 25 c0 25 -1 25 -85 25 l-85 0 0 180 0 180 70 0 70 0 0
45 0 45 -195 0 -195 0 0 -45 0 -45 75 0 75 0 0 -180 0 -181 -102 3 -103 3 -42
63 c-28 41 -38 62 -28 62 23 0 73 82 80 133 12 81 -46 167 -114 167 -11 0 -23
5 -26 10 -4 6 -60 10 -136 10 l-129 0 0 -225 0 -225 -87 0 c-80 0 -86 1 -66
15 38 27 66 103 66 185 1 105 -27 159 -108 214 -59 40 -61 41 -149 41 -63 0
-91 -4 -93 -12 -3 -7 -10 -13 -17 -13 -31 0 -98 -63 -122 -113 -43 -94 -25
-233 38 -289 l31 -28 -217 0 -216 0 0 44 0 44 93 4 c146 6 195 49 197 170 0
97 -33 152 -101 163 -21 4 -41 11 -45 16 -3 5 -59 9 -125 9 l-119 0 0 -225 0
-225 -51 0 c-48 0 -50 1 -42 23 4 12 8 50 8 84 0 81 -22 105 -120 130 -38 10
-72 20 -75 23 -3 3 -17 11 -32 19 -16 8 -28 23 -28 34 0 48 78 62 146 25 48
-25 67 -20 90 23 16 32 16 33 -6 51 -12 10 -30 18 -40 18 -10 0 -20 6 -22 13
-3 8 -31 12 -90 12 -81 0 -86 -1 -131 -35 -51 -39 -64 -71 -54 -143 7 -48 50
-94 98 -104 16 -3 29 -9 29 -13 0 -4 19 -10 43 -14 60 -10 89 -31 85 -64 -2
-18 -11 -30 -29 -36 -40 -14 -113 1 -144 29 -35 33 -49 31 -81 -10 -22 -29
-24 -38 -14 -50 11 -13 -4 -15 -124 -15 l-137 0 7 23 c3 12 11 24 15 25 12 5
11 92 -1 92 -5 0 -10 8 -10 18 0 10 -10 28 -22 39 -25 22 -108 53 -145 53 -13
0 -23 4 -23 9 0 5 -9 11 -19 14 -31 8 -43 40 -25 65 20 29 73 29 131 1 51 -25
66 -21 88 21 19 37 15 44 -38 71 -63 31 -152 36 -208 11 -63 -29 -82 -53 -87
-115 -6 -75 16 -123 65 -143 21 -8 45 -18 53 -23 9 -5 31 -12 50 -16 52 -10
80 -32 80 -60 0 -53 -99 -59 -168 -11 -46 32 -58 32 -73 4 -7 -13 -19 -28 -28
-35 -14 -11 -14 -13 4 -27 19 -15 19 -15 -7 -16 -23 0 -29 7 -46 53 -11 29
-29 71 -41 92 -11 22 -33 72 -49 110 -16 39 -42 98 -58 133 l-29 62 -51 0 -51
0 -18 -55 c-11 -30 -22 -55 -26 -55 -4 0 -24 -44 -45 -97 -21 -54 -44 -104
-51 -111 -7 -7 -13 -18 -13 -23 0 -6 -10 -33 -21 -60 -19 -42 -25 -49 -50 -49
l-29 0 -2 223 -3 222 -64 3 c-59 3 -66 1 -88 -24 -13 -15 -23 -31 -23 -36 0
-17 -62 -151 -76 -165 -7 -7 -16 -23 -19 -34 -6 -17 -22 8 -76 120 l-69 141
-70 0 -70 0 0 -225 0 -225 -86 0 -86 0 29 29 c79 79 69 296 -17 359 -66 49
-105 65 -170 68 -36 1 -73 0 -84 -3z m149 -121 c102 -70 99 -199 -4 -269 -106
-72 -248 29 -227 161 9 52 27 80 74 110 51 34 105 33 157 -2z m2660 18 c3 -5
21 -10 39 -10 49 0 71 -21 71 -69 0 -62 -26 -82 -114 -89 l-71 -5 0 92 0 91
34 0 c19 0 38 -4 41 -10z m577 3 c2 -5 16 -16 33 -25 46 -26 67 -73 63 -139
-12 -173 -229 -206 -293 -46 -28 69 -5 142 59 187 31 22 53 29 88 30 25 0 48
-3 50 -7z m483 -3 c3 -5 21 -10 39 -10 17 0 37 -5 44 -12 14 -14 16 -76 4 -96
-12 -18 -68 -32 -129 -32 l-53 0 0 80 0 80 44 0 c25 0 48 -4 51 -10z"/>
<path d="M2820 2251 c-8 -5 -35 -12 -60 -16 -78 -12 -228 -64 -234 -81 -3 -9
-6 -288 -6 -620 0 -517 2 -604 14 -604 8 0 21 6 28 14 8 7 45 30 83 50 38 20
76 43 85 50 8 8 40 26 70 41 29 15 71 39 92 53 l38 25 0 548 0 549 -47 0 c-27
0 -55 -4 -63 -9z"/>
<path d="M3070 2038 c0 -258 -11 -231 116 -297 43 -23 85 -47 93 -55 9 -7 45
-28 81 -46 36 -17 72 -38 80 -45 8 -7 42 -27 75 -44 76 -41 219 -123 236 -138
8 -6 48 -28 89 -49 41 -21 82 -45 90 -52 8 -8 30 -21 49 -29 19 -8 59 -30 88
-49 29 -19 56 -34 60 -34 10 0 -5 154 -23 224 -9 36 -20 66 -25 66 -5 0 -9 8
-9 18 0 24 -68 176 -80 180 -6 2 -10 9 -10 14 0 15 -58 105 -90 141 -51 58
-171 173 -212 204 -144 107 -372 193 -555 210 l-53 5 0 -224z"/>
<path d="M2340 2045 c-7 -8 -18 -15 -24 -15 -6 0 -44 -33 -84 -73 -102 -101
-115 -116 -153 -172 -18 -28 -36 -52 -40 -55 -5 -3 -22 -37 -39 -75 -18 -39
-40 -88 -51 -111 -10 -23 -29 -79 -41 -125 -20 -74 -23 -109 -23 -289 0 -183
3 -215 23 -295 13 -49 30 -99 36 -110 7 -11 18 -37 25 -57 7 -21 19 -38 27
-38 16 0 76 29 84 40 3 4 30 20 60 35 30 15 82 45 116 66 34 22 64 39 69 39 4
0 19 9 33 19 l27 19 -3 606 c-2 503 -5 606 -16 606 -7 0 -19 -7 -26 -15z"/>
<path d="M3070 1409 c0 -278 -10 -251 115 -315 39 -20 77 -42 85 -49 8 -6 49
-30 90 -51 41 -21 81 -45 88 -52 8 -7 41 -26 75 -43 34 -17 64 -34 67 -38 3
-5 39 -26 80 -47 41 -21 77 -42 80 -45 3 -4 41 -26 85 -49 44 -24 82 -46 85
-50 9 -13 91 -51 99 -46 4 3 16 27 26 53 10 26 26 66 36 88 21 48 49 190 49
249 l0 41 -78 38 c-42 22 -90 48 -107 59 -16 11 -79 48 -140 83 -60 35 -128
75 -150 88 -22 14 -68 39 -102 57 -34 17 -65 35 -68 40 -3 5 -34 23 -68 40
-34 18 -80 43 -102 57 -115 71 -224 133 -234 133 -8 0 -11 -73 -11 -241z"/>
<path d="M2910 999 c-41 -23 -77 -44 -80 -48 -3 -4 -39 -25 -80 -45 -41 -21
-77 -42 -80 -46 -3 -4 -33 -21 -66 -38 -34 -17 -68 -37 -75 -44 -8 -7 -48 -31
-89 -52 -41 -22 -77 -43 -80 -46 -3 -4 -41 -26 -84 -49 -44 -22 -87 -47 -95
-55 -9 -7 -37 -23 -63 -35 -52 -25 -58 -41 -30 -82 40 -60 181 -201 225 -225
15 -8 27 -19 27 -24 0 -17 43 -23 55 -7 6 8 43 31 83 51 39 21 74 41 77 46 3
5 37 25 77 45 39 20 82 44 97 54 31 21 150 90 241 139 36 20 67 39 70 42 3 4
36 24 75 44 38 20 76 42 85 50 8 7 40 25 70 40 80 41 139 79 140 92 0 5 -19
20 -42 33 -73 39 -171 95 -213 122 -52 34 -144 79 -158 79 -7 -1 -46 -19 -87
-41z"/>
<path d="M3514 706 c-18 -8 -34 -19 -38 -24 -4 -6 -44 -30 -89 -53 -45 -23
-84 -45 -87 -49 -3 -4 -30 -20 -60 -35 -30 -15 -66 -35 -80 -45 -14 -10 -56
-35 -95 -55 -38 -21 -72 -41 -75 -45 -3 -4 -39 -24 -80 -45 -41 -21 -82 -44
-90 -51 -8 -7 -44 -28 -80 -47 -36 -19 -81 -45 -100 -58 -20 -13 -55 -33 -78
-43 -73 -33 -51 -60 83 -99 185 -54 173 -52 370 -52 178 1 196 2 279 28 158
48 212 69 226 86 3 3 34 21 70 40 36 18 70 39 75 45 6 6 28 24 50 41 71 52
225 221 225 246 0 16 -76 64 -230 147 -36 19 -67 37 -70 41 -9 12 -68 41 -82
41 -7 -1 -27 -7 -44 -14z"/>
</g>
</svg>
